<svg xmlns="http://www.w3.org/2000/svg" width="1200" height="630" viewBox="0 0 1200 630" role="img" aria-label="Memorial Catering"><defs><radialGradient id="g" cx="82%" cy="18%" r="80%"><stop offset="0" stop-color="hsl(46 45% 20%)"/><stop offset=".55" stop-color="#0b0906"/><stop offset="1" stop-color="#020202"/></radialGradient><linearGradient id="gold"><stop stop-color="#b98528"/><stop offset=".5" stop-color="#f2d17c"/><stop offset="1" stop-color="#a66f1e"/></linearGradient></defs><rect width="1200" height="630" fill="url(#g)"/><circle cx="948" cy="91" r="2" fill="#e0b65f" opacity=".22"/><circle cx="558" cy="340" r="3" fill="#e0b65f" opacity=".22"/><circle cx="1118" cy="272" r="4" fill="#e0b65f" opacity=".27"/><circle cx="700" cy="556" r="6" fill="#e0b65f" opacity=".36"/><circle cx="911" cy="138" r="3" fill="#e0b65f" opacity=".28"/><circle cx="307" cy="304" r="6" fill="#e0b65f" opacity=".30"/><circle cx="471" cy="484" r="2" fill="#e0b65f" opacity=".31"/><circle cx="123" cy="553" r="5" fill="#e0b65f" opacity=".14"/><circle cx="109" cy="322" r="6" fill="#e0b65f" opacity=".22"/><circle cx="754" cy="429" r="4" fill="#e0b65f" opacity=".27"/><circle cx="316" cy="318" r="5" fill="#e0b65f" opacity=".13"/><circle cx="641" cy="442" r="5" fill="#e0b65f" opacity=".33"/><circle cx="515" cy="191" r="3" fill="#e0b65f" opacity=".38"/><circle cx="483" cy="125" r="6" fill="#e0b65f" opacity=".21"/><circle cx="708" cy="540" r="6" fill="#e0b65f" opacity=".28"/><circle cx="931" cy="64" r="2" fill="#e0b65f" opacity=".38"/><rect x="70" y="66" width="1060" height="498" rx="30" fill="none" stroke="#d6ad52" opacity=".28"/><text x="90" y="125" fill="#d6ad52" font-size="20" font-family="Arial" letter-spacing="5">VELLORE CATERING GUIDE</text><text x="90" y="280" fill="url(#gold)" font-size="54" font-family="Georgia" font-weight="700">Memorial Catering</text><text x="92" y="332" fill="#f2eadb" opacity=".86" font-size="23" font-family="Arial">Service Timing · Mistakes to Avoid</text><line x1="92" y1="385" x2="480" y2="385" stroke="#d6ad52" opacity=".5"/><text x="92" y="440" fill="#f2eadb" font-size="21" font-family="Arial">Wedding • Birthday • Seemandham • Other Caterings</text><text x="92" y="495" fill="#bfb5a6" font-size="18" font-family="Arial">Vellore Catering · WhatsApp 99404 66250</text></svg>