<svg xmlns="http://www.w3.org/2000/svg" width="1200" height="630" viewBox="0 0 1200 630" role="img" aria-label="Kerala Catering"><defs><radialGradient id="g" cx="82%" cy="18%" r="80%"><stop offset="0" stop-color="hsl(48 45% 20%)"/><stop offset=".55" stop-color="#0b0906"/><stop offset="1" stop-color="#020202"/></radialGradient><linearGradient id="gold"><stop stop-color="#b98528"/><stop offset=".5" stop-color="#f2d17c"/><stop offset="1" stop-color="#a66f1e"/></linearGradient></defs><rect width="1200" height="630" fill="url(#g)"/><circle cx="516" cy="368" r="6" fill="#e0b65f" opacity=".37"/><circle cx="608" cy="258" r="5" fill="#e0b65f" opacity=".28"/><circle cx="787" cy="421" r="2" fill="#e0b65f" opacity=".24"/><circle cx="118" cy="412" r="3" fill="#e0b65f" opacity=".27"/><circle cx="1055" cy="139" r="6" fill="#e0b65f" opacity=".33"/><circle cx="200" cy="142" r="3" fill="#e0b65f" opacity=".14"/><circle cx="1000" cy="151" r="6" fill="#e0b65f" opacity=".16"/><circle cx="124" cy="101" r="5" fill="#e0b65f" opacity=".31"/><circle cx="162" cy="92" r="5" fill="#e0b65f" opacity=".27"/><circle cx="281" cy="347" r="2" fill="#e0b65f" opacity=".20"/><circle cx="289" cy="489" r="2" fill="#e0b65f" opacity=".16"/><circle cx="553" cy="447" r="6" fill="#e0b65f" opacity=".35"/><circle cx="401" cy="298" r="5" fill="#e0b65f" opacity=".22"/><circle cx="226" cy="405" r="2" fill="#e0b65f" opacity=".32"/><circle cx="487" cy="468" r="4" fill="#e0b65f" opacity=".30"/><circle cx="587" cy="170" r="5" fill="#e0b65f" opacity=".17"/><rect x="70" y="66" width="1060" height="498" rx="30" fill="none" stroke="#d6ad52" opacity=".28"/><text x="90" y="125" fill="#d6ad52" font-size="20" font-family="Arial" letter-spacing="5">VELLORE CATERING GUIDE</text><text x="90" y="280" fill="url(#gold)" font-size="54" font-family="Georgia" font-weight="700">Kerala Catering</text><text x="92" y="332" fill="#f2eadb" opacity=".86" font-size="23" font-family="Arial">Family Preferences · Venue Coordination Guide</text><line x1="92" y1="385" x2="480" y2="385" stroke="#d6ad52" opacity=".5"/><text x="92" y="440" fill="#f2eadb" font-size="21" font-family="Arial">Wedding • Birthday • Seemandham • Other Caterings</text><text x="92" y="495" fill="#bfb5a6" font-size="18" font-family="Arial">Vellore Catering · WhatsApp 99404 66250</text></svg>