<svg xmlns="http://www.w3.org/2000/svg" width="1200" height="630" viewBox="0 0 1200 630" role="img" aria-label="Friendship Day Catering"><defs><radialGradient id="g" cx="82%" cy="18%" r="80%"><stop offset="0" stop-color="hsl(49 45% 20%)"/><stop offset=".55" stop-color="#0b0906"/><stop offset="1" stop-color="#020202"/></radialGradient><linearGradient id="gold"><stop stop-color="#b98528"/><stop offset=".5" stop-color="#f2d17c"/><stop offset="1" stop-color="#a66f1e"/></linearGradient></defs><rect width="1200" height="630" fill="url(#g)"/><circle cx="550" cy="172" r="6" fill="#e0b65f" opacity=".23"/><circle cx="186" cy="559" r="2" fill="#e0b65f" opacity=".22"/><circle cx="785" cy="146" r="2" fill="#e0b65f" opacity=".13"/><circle cx="687" cy="225" r="5" fill="#e0b65f" opacity=".13"/><circle cx="780" cy="374" r="4" fill="#e0b65f" opacity=".23"/><circle cx="988" cy="123" r="2" fill="#e0b65f" opacity=".38"/><circle cx="317" cy="377" r="5" fill="#e0b65f" opacity=".13"/><circle cx="176" cy="116" r="5" fill="#e0b65f" opacity=".28"/><circle cx="918" cy="376" r="6" fill="#e0b65f" opacity=".13"/><circle cx="134" cy="476" r="5" fill="#e0b65f" opacity=".22"/><circle cx="571" cy="405" r="3" fill="#e0b65f" opacity=".32"/><circle cx="193" cy="345" r="3" fill="#e0b65f" opacity=".32"/><circle cx="955" cy="454" r="3" fill="#e0b65f" opacity=".38"/><circle cx="655" cy="276" r="5" fill="#e0b65f" opacity=".25"/><circle cx="564" cy="455" r="6" fill="#e0b65f" opacity=".14"/><circle cx="767" cy="158" r="3" fill="#e0b65f" opacity=".31"/><rect x="70" y="66" width="1060" height="498" rx="30" fill="none" stroke="#d6ad52" opacity=".28"/><text x="90" y="125" fill="#d6ad52" font-size="20" font-family="Arial" letter-spacing="5">VELLORE CATERING GUIDE</text><text x="90" y="280" fill="url(#gold)" font-size="54" font-family="Georgia" font-weight="700">Friendship Day Catering</text><text x="92" y="332" fill="#f2eadb" opacity=".86" font-size="23" font-family="Arial">Summer Events · Service Guide</text><line x1="92" y1="385" x2="480" y2="385" stroke="#d6ad52" opacity=".5"/><text x="92" y="440" fill="#f2eadb" font-size="21" font-family="Arial">Wedding • Birthday • Seemandham • Other Caterings</text><text x="92" y="495" fill="#bfb5a6" font-size="18" font-family="Arial">Vellore Catering · WhatsApp 99404 66250</text></svg>