<svg xmlns="http://www.w3.org/2000/svg" width="1200" height="630" viewBox="0 0 1200 630" role="img" aria-label="Kerala Catering"><defs><radialGradient id="g" cx="82%" cy="18%" r="80%"><stop offset="0" stop-color="hsl(30 45% 20%)"/><stop offset=".55" stop-color="#0b0906"/><stop offset="1" stop-color="#020202"/></radialGradient><linearGradient id="gold"><stop stop-color="#b98528"/><stop offset=".5" stop-color="#f2d17c"/><stop offset="1" stop-color="#a66f1e"/></linearGradient></defs><rect width="1200" height="630" fill="url(#g)"/><circle cx="636" cy="193" r="4" fill="#e0b65f" opacity=".20"/><circle cx="146" cy="66" r="4" fill="#e0b65f" opacity=".23"/><circle cx="650" cy="312" r="3" fill="#e0b65f" opacity=".34"/><circle cx="277" cy="141" r="3" fill="#e0b65f" opacity=".26"/><circle cx="937" cy="218" r="6" fill="#e0b65f" opacity=".32"/><circle cx="993" cy="441" r="2" fill="#e0b65f" opacity=".26"/><circle cx="948" cy="186" r="6" fill="#e0b65f" opacity=".31"/><circle cx="688" cy="330" r="6" fill="#e0b65f" opacity=".32"/><circle cx="457" cy="212" r="4" fill="#e0b65f" opacity=".13"/><circle cx="1079" cy="208" r="2" fill="#e0b65f" opacity=".34"/><circle cx="267" cy="517" r="2" fill="#e0b65f" opacity=".22"/><circle cx="419" cy="99" r="2" fill="#e0b65f" opacity=".29"/><circle cx="791" cy="390" r="4" fill="#e0b65f" opacity=".38"/><circle cx="143" cy="560" r="6" fill="#e0b65f" opacity=".27"/><circle cx="154" cy="122" r="4" fill="#e0b65f" opacity=".26"/><circle cx="867" cy="471" r="6" fill="#e0b65f" opacity=".39"/><rect x="70" y="66" width="1060" height="498" rx="30" fill="none" stroke="#d6ad52" opacity=".28"/><text x="90" y="125" fill="#d6ad52" font-size="20" font-family="Arial" letter-spacing="5">VELLORE CATERING GUIDE</text><text x="90" y="280" fill="url(#gold)" font-size="54" font-family="Georgia" font-weight="700">Kerala Catering</text><text x="92" y="332" fill="#f2eadb" opacity=".86" font-size="23" font-family="Arial">Service Timing · Budget Planning Guide</text><line x1="92" y1="385" x2="480" y2="385" stroke="#d6ad52" opacity=".5"/><text x="92" y="440" fill="#f2eadb" font-size="21" font-family="Arial">Wedding • Birthday • Seemandham • Other Caterings</text><text x="92" y="495" fill="#bfb5a6" font-size="18" font-family="Arial">Vellore Catering · WhatsApp 99404 66250</text></svg>