<svg xmlns="http://www.w3.org/2000/svg" width="1200" height="630" viewBox="0 0 1200 630" role="img" aria-label="Training Program Catering"><defs><radialGradient id="g" cx="82%" cy="18%" r="80%"><stop offset="0" stop-color="hsl(50 45% 20%)"/><stop offset=".55" stop-color="#0b0906"/><stop offset="1" stop-color="#020202"/></radialGradient><linearGradient id="gold"><stop stop-color="#b98528"/><stop offset=".5" stop-color="#f2d17c"/><stop offset="1" stop-color="#a66f1e"/></linearGradient></defs><rect width="1200" height="630" fill="url(#g)"/><circle cx="295" cy="93" r="4" fill="#e0b65f" opacity=".24"/><circle cx="720" cy="521" r="3" fill="#e0b65f" opacity=".24"/><circle cx="267" cy="66" r="4" fill="#e0b65f" opacity=".14"/><circle cx="675" cy="315" r="5" fill="#e0b65f" opacity=".30"/><circle cx="563" cy="415" r="6" fill="#e0b65f" opacity=".39"/><circle cx="1035" cy="488" r="4" fill="#e0b65f" opacity=".15"/><circle cx="318" cy="222" r="5" fill="#e0b65f" opacity=".16"/><circle cx="1094" cy="244" r="4" fill="#e0b65f" opacity=".21"/><circle cx="594" cy="62" r="2" fill="#e0b65f" opacity=".38"/><circle cx="1047" cy="337" r="2" fill="#e0b65f" opacity=".15"/><circle cx="224" cy="204" r="3" fill="#e0b65f" opacity=".18"/><circle cx="500" cy="168" r="2" fill="#e0b65f" opacity=".33"/><circle cx="751" cy="99" r="2" fill="#e0b65f" opacity=".19"/><circle cx="95" cy="185" r="4" fill="#e0b65f" opacity=".28"/><circle cx="117" cy="244" r="3" fill="#e0b65f" opacity=".33"/><circle cx="113" cy="411" r="3" fill="#e0b65f" opacity=".33"/><rect x="70" y="66" width="1060" height="498" rx="30" fill="none" stroke="#d6ad52" opacity=".28"/><text x="90" y="125" fill="#d6ad52" font-size="20" font-family="Arial" letter-spacing="5">VELLORE CATERING GUIDE</text><text x="90" y="280" fill="url(#gold)" font-size="54" font-family="Georgia" font-weight="700">Training Program Catering</text><text x="92" y="332" fill="#f2eadb" opacity=".86" font-size="23" font-family="Arial">Monsoon Planning · Menu Guide</text><line x1="92" y1="385" x2="480" y2="385" stroke="#d6ad52" opacity=".5"/><text x="92" y="440" fill="#f2eadb" font-size="21" font-family="Arial">Wedding • Birthday • Seemandham • Other Caterings</text><text x="92" y="495" fill="#bfb5a6" font-size="18" font-family="Arial">Vellore Catering · WhatsApp 99404 66250</text></svg>