<svg xmlns="http://www.w3.org/2000/svg" width="1200" height="630" viewBox="0 0 1200 630" role="img" aria-label="Arcot Bazaar Menu Planning"><defs><radialGradient id="g" cx="82%" cy="18%" r="80%"><stop offset="0" stop-color="hsl(35 45% 20%)"/><stop offset=".55" stop-color="#0b0906"/><stop offset="1" stop-color="#020202"/></radialGradient><linearGradient id="gold"><stop stop-color="#b98528"/><stop offset=".5" stop-color="#f2d17c"/><stop offset="1" stop-color="#a66f1e"/></linearGradient></defs><rect width="1200" height="630" fill="url(#g)"/><circle cx="960" cy="130" r="6" fill="#e0b65f" opacity=".30"/><circle cx="548" cy="220" r="5" fill="#e0b65f" opacity=".34"/><circle cx="540" cy="397" r="6" fill="#e0b65f" opacity=".25"/><circle cx="107" cy="478" r="2" fill="#e0b65f" opacity=".17"/><circle cx="1063" cy="267" r="6" fill="#e0b65f" opacity=".33"/><circle cx="861" cy="265" r="2" fill="#e0b65f" opacity=".34"/><circle cx="462" cy="384" r="2" fill="#e0b65f" opacity=".29"/><circle cx="251" cy="160" r="6" fill="#e0b65f" opacity=".32"/><circle cx="685" cy="483" r="2" fill="#e0b65f" opacity=".27"/><circle cx="923" cy="409" r="4" fill="#e0b65f" opacity=".32"/><circle cx="785" cy="229" r="6" fill="#e0b65f" opacity=".13"/><circle cx="870" cy="370" r="2" fill="#e0b65f" opacity=".23"/><circle cx="344" cy="552" r="2" fill="#e0b65f" opacity=".39"/><circle cx="133" cy="486" r="2" fill="#e0b65f" opacity=".38"/><circle cx="799" cy="117" r="6" fill="#e0b65f" opacity=".20"/><circle cx="774" cy="524" r="6" fill="#e0b65f" opacity=".15"/><rect x="70" y="66" width="1060" height="498" rx="30" fill="none" stroke="#d6ad52" opacity=".28"/><text x="90" y="125" fill="#d6ad52" font-size="20" font-family="Arial" letter-spacing="5">LOCAL SERVICE AREA</text><text x="90" y="280" fill="url(#gold)" font-size="54" font-family="Georgia" font-weight="700">Arcot Bazaar Menu Planning</text><text x="92" y="332" fill="#f2eadb" opacity=".86" font-size="23" font-family="Arial">Illustrative food-service planning artwork</text><line x1="92" y1="385" x2="480" y2="385" stroke="#d6ad52" opacity=".5"/><text x="92" y="440" fill="#f2eadb" font-size="21" font-family="Arial">Wedding • Birthday • Seemandham • Other Caterings</text><text x="92" y="495" fill="#bfb5a6" font-size="18" font-family="Arial">Vellore Catering · WhatsApp 99404 66250</text></svg>