<svg xmlns="http://www.w3.org/2000/svg" width="1200" height="630" viewBox="0 0 1200 630" role="img" aria-label="Ariyur Road Wedding Planning"><defs><radialGradient id="g" cx="82%" cy="18%" r="80%"><stop offset="0" stop-color="hsl(31 45% 20%)"/><stop offset=".55" stop-color="#0b0906"/><stop offset="1" stop-color="#020202"/></radialGradient><linearGradient id="gold"><stop stop-color="#b98528"/><stop offset=".5" stop-color="#f2d17c"/><stop offset="1" stop-color="#a66f1e"/></linearGradient></defs><rect width="1200" height="630" fill="url(#g)"/><circle cx="812" cy="226" r="6" fill="#e0b65f" opacity=".29"/><circle cx="516" cy="384" r="2" fill="#e0b65f" opacity=".32"/><circle cx="413" cy="241" r="5" fill="#e0b65f" opacity=".16"/><circle cx="439" cy="134" r="5" fill="#e0b65f" opacity=".19"/><circle cx="845" cy="498" r="5" fill="#e0b65f" opacity=".24"/><circle cx="730" cy="228" r="3" fill="#e0b65f" opacity=".26"/><circle cx="828" cy="258" r="2" fill="#e0b65f" opacity=".30"/><circle cx="746" cy="422" r="2" fill="#e0b65f" opacity=".12"/><circle cx="141" cy="532" r="6" fill="#e0b65f" opacity=".34"/><circle cx="402" cy="150" r="3" fill="#e0b65f" opacity=".21"/><circle cx="1002" cy="302" r="5" fill="#e0b65f" opacity=".12"/><circle cx="840" cy="68" r="2" fill="#e0b65f" opacity=".26"/><circle cx="91" cy="259" r="2" fill="#e0b65f" opacity=".18"/><circle cx="376" cy="202" r="5" fill="#e0b65f" opacity=".24"/><circle cx="823" cy="144" r="3" fill="#e0b65f" opacity=".18"/><circle cx="205" cy="61" r="5" fill="#e0b65f" opacity=".15"/><rect x="70" y="66" width="1060" height="498" rx="30" fill="none" stroke="#d6ad52" opacity=".28"/><text x="90" y="125" fill="#d6ad52" font-size="20" font-family="Arial" letter-spacing="5">LOCAL SERVICE AREA</text><text x="90" y="280" fill="url(#gold)" font-size="54" font-family="Georgia" font-weight="700">Ariyur Road Wedding Planning</text><text x="92" y="332" fill="#f2eadb" opacity=".86" font-size="23" font-family="Arial">Illustrative event-service planning artwork</text><line x1="92" y1="385" x2="480" y2="385" stroke="#d6ad52" opacity=".5"/><text x="92" y="440" fill="#f2eadb" font-size="21" font-family="Arial">Wedding • Birthday • Seemandham • Other Caterings</text><text x="92" y="495" fill="#bfb5a6" font-size="18" font-family="Arial">Vellore Catering · WhatsApp 99404 66250</text></svg>