<svg xmlns="http://www.w3.org/2000/svg" width="1200" height="630" viewBox="0 0 1200 630" role="img" aria-label="Catering in Kammiyambattu"><defs><radialGradient id="g" cx="82%" cy="18%" r="80%"><stop offset="0" stop-color="hsl(34 45% 20%)"/><stop offset=".55" stop-color="#0b0906"/><stop offset="1" stop-color="#020202"/></radialGradient><linearGradient id="gold"><stop stop-color="#b98528"/><stop offset=".5" stop-color="#f2d17c"/><stop offset="1" stop-color="#a66f1e"/></linearGradient></defs><rect width="1200" height="630" fill="url(#g)"/><circle cx="450" cy="90" r="2" fill="#e0b65f" opacity=".30"/><circle cx="435" cy="507" r="2" fill="#e0b65f" opacity=".27"/><circle cx="926" cy="242" r="5" fill="#e0b65f" opacity=".13"/><circle cx="448" cy="551" r="6" fill="#e0b65f" opacity=".13"/><circle cx="758" cy="454" r="4" fill="#e0b65f" opacity=".24"/><circle cx="886" cy="326" r="2" fill="#e0b65f" opacity=".13"/><circle cx="821" cy="126" r="4" fill="#e0b65f" opacity=".30"/><circle cx="724" cy="335" r="4" fill="#e0b65f" opacity=".34"/><circle cx="626" cy="251" r="3" fill="#e0b65f" opacity=".19"/><circle cx="914" cy="498" r="3" fill="#e0b65f" opacity=".38"/><circle cx="822" cy="393" r="6" fill="#e0b65f" opacity=".12"/><circle cx="279" cy="552" r="3" fill="#e0b65f" opacity=".26"/><circle cx="575" cy="431" r="2" fill="#e0b65f" opacity=".13"/><circle cx="1098" cy="322" r="5" fill="#e0b65f" opacity=".28"/><circle cx="275" cy="129" r="6" fill="#e0b65f" opacity=".12"/><circle cx="651" cy="452" r="3" fill="#e0b65f" opacity=".38"/><rect x="70" y="66" width="1060" height="498" rx="30" fill="none" stroke="#d6ad52" opacity=".28"/><text x="90" y="125" fill="#d6ad52" font-size="20" font-family="Arial" letter-spacing="5">LOCAL SERVICE AREA</text><text x="90" y="280" fill="url(#gold)" font-size="54" font-family="Georgia" font-weight="700">Catering in Kammiyambattu</text><text x="92" y="332" fill="#f2eadb" opacity=".86" font-size="23" font-family="Arial">Kammiyambattu, Vellore, Tamil Nadu</text><line x1="92" y1="385" x2="480" y2="385" stroke="#d6ad52" opacity=".5"/><text x="92" y="440" fill="#f2eadb" font-size="21" font-family="Arial">Wedding • Birthday • Seemandham • Other Caterings</text><text x="92" y="495" fill="#bfb5a6" font-size="18" font-family="Arial">Vellore Catering · WhatsApp 99404 66250</text></svg>