<svg xmlns="http://www.w3.org/2000/svg" width="1200" height="630" viewBox="0 0 1200 630" role="img" aria-label="Karugambathur Menu Planning"><defs><radialGradient id="g" cx="82%" cy="18%" r="80%"><stop offset="0" stop-color="hsl(47 45% 20%)"/><stop offset=".55" stop-color="#0b0906"/><stop offset="1" stop-color="#020202"/></radialGradient><linearGradient id="gold"><stop stop-color="#b98528"/><stop offset=".5" stop-color="#f2d17c"/><stop offset="1" stop-color="#a66f1e"/></linearGradient></defs><rect width="1200" height="630" fill="url(#g)"/><circle cx="293" cy="70" r="6" fill="#e0b65f" opacity=".32"/><circle cx="948" cy="370" r="5" fill="#e0b65f" opacity=".13"/><circle cx="690" cy="402" r="3" fill="#e0b65f" opacity=".16"/><circle cx="420" cy="479" r="6" fill="#e0b65f" opacity=".15"/><circle cx="467" cy="505" r="6" fill="#e0b65f" opacity=".37"/><circle cx="322" cy="236" r="3" fill="#e0b65f" opacity=".24"/><circle cx="638" cy="513" r="6" fill="#e0b65f" opacity=".29"/><circle cx="421" cy="323" r="5" fill="#e0b65f" opacity=".22"/><circle cx="973" cy="467" r="6" fill="#e0b65f" opacity=".35"/><circle cx="643" cy="310" r="3" fill="#e0b65f" opacity=".31"/><circle cx="1010" cy="482" r="4" fill="#e0b65f" opacity=".34"/><circle cx="445" cy="535" r="3" fill="#e0b65f" opacity=".35"/><circle cx="167" cy="283" r="3" fill="#e0b65f" opacity=".36"/><circle cx="976" cy="422" r="2" fill="#e0b65f" opacity=".29"/><circle cx="118" cy="477" r="6" fill="#e0b65f" opacity=".30"/><circle cx="249" cy="427" r="3" fill="#e0b65f" opacity=".33"/><rect x="70" y="66" width="1060" height="498" rx="30" fill="none" stroke="#d6ad52" opacity=".28"/><text x="90" y="125" fill="#d6ad52" font-size="20" font-family="Arial" letter-spacing="5">LOCAL SERVICE AREA</text><text x="90" y="280" fill="url(#gold)" font-size="54" font-family="Georgia" font-weight="700">Karugambathur Menu Planning</text><text x="92" y="332" fill="#f2eadb" opacity=".86" font-size="23" font-family="Arial">Illustrative food-service planning artwork</text><line x1="92" y1="385" x2="480" y2="385" stroke="#d6ad52" opacity=".5"/><text x="92" y="440" fill="#f2eadb" font-size="21" font-family="Arial">Wedding • Birthday • Seemandham • Other Caterings</text><text x="92" y="495" fill="#bfb5a6" font-size="18" font-family="Arial">Vellore Catering · WhatsApp 99404 66250</text></svg>