<svg xmlns="http://www.w3.org/2000/svg" width="1200" height="630" viewBox="0 0 1200 630" role="img" aria-label="Karuneekasamudram Menu Planning"><defs><radialGradient id="g" cx="82%" cy="18%" r="80%"><stop offset="0" stop-color="hsl(32 45% 20%)"/><stop offset=".55" stop-color="#0b0906"/><stop offset="1" stop-color="#020202"/></radialGradient><linearGradient id="gold"><stop stop-color="#b98528"/><stop offset=".5" stop-color="#f2d17c"/><stop offset="1" stop-color="#a66f1e"/></linearGradient></defs><rect width="1200" height="630" fill="url(#g)"/><circle cx="1094" cy="278" r="6" fill="#e0b65f" opacity=".31"/><circle cx="1114" cy="443" r="2" fill="#e0b65f" opacity=".38"/><circle cx="431" cy="431" r="3" fill="#e0b65f" opacity=".14"/><circle cx="554" cy="316" r="6" fill="#e0b65f" opacity=".18"/><circle cx="1028" cy="204" r="3" fill="#e0b65f" opacity=".32"/><circle cx="513" cy="334" r="3" fill="#e0b65f" opacity=".20"/><circle cx="583" cy="410" r="5" fill="#e0b65f" opacity=".16"/><circle cx="562" cy="318" r="2" fill="#e0b65f" opacity=".17"/><circle cx="1030" cy="406" r="3" fill="#e0b65f" opacity=".29"/><circle cx="469" cy="145" r="2" fill="#e0b65f" opacity=".34"/><circle cx="981" cy="522" r="5" fill="#e0b65f" opacity=".32"/><circle cx="1072" cy="324" r="4" fill="#e0b65f" opacity=".17"/><circle cx="422" cy="555" r="3" fill="#e0b65f" opacity=".26"/><circle cx="948" cy="460" r="5" fill="#e0b65f" opacity=".35"/><circle cx="267" cy="340" r="5" fill="#e0b65f" opacity=".27"/><circle cx="606" cy="145" r="5" fill="#e0b65f" opacity=".33"/><rect x="70" y="66" width="1060" height="498" rx="30" fill="none" stroke="#d6ad52" opacity=".28"/><text x="90" y="125" fill="#d6ad52" font-size="20" font-family="Arial" letter-spacing="5">LOCAL SERVICE AREA</text><text x="90" y="280" fill="url(#gold)" font-size="54" font-family="Georgia" font-weight="700">Karuneekasamudram Menu Planning</text><text x="92" y="332" fill="#f2eadb" opacity=".86" font-size="23" font-family="Arial">Illustrative food-service planning artwork</text><line x1="92" y1="385" x2="480" y2="385" stroke="#d6ad52" opacity=".5"/><text x="92" y="440" fill="#f2eadb" font-size="21" font-family="Arial">Wedding • Birthday • Seemandham • Other Caterings</text><text x="92" y="495" fill="#bfb5a6" font-size="18" font-family="Arial">Vellore Catering · WhatsApp 99404 66250</text></svg>