<svg xmlns="http://www.w3.org/2000/svg" width="1200" height="630" viewBox="0 0 1200 630" role="img" aria-label="Catering in Old Bus Stand Vellore"><defs><radialGradient id="g" cx="82%" cy="18%" r="80%"><stop offset="0" stop-color="hsl(42 45% 20%)"/><stop offset=".55" stop-color="#0b0906"/><stop offset="1" stop-color="#020202"/></radialGradient><linearGradient id="gold"><stop stop-color="#b98528"/><stop offset=".5" stop-color="#f2d17c"/><stop offset="1" stop-color="#a66f1e"/></linearGradient></defs><rect width="1200" height="630" fill="url(#g)"/><circle cx="718" cy="461" r="6" fill="#e0b65f" opacity=".38"/><circle cx="1018" cy="314" r="3" fill="#e0b65f" opacity=".39"/><circle cx="284" cy="127" r="5" fill="#e0b65f" opacity=".20"/><circle cx="898" cy="443" r="4" fill="#e0b65f" opacity=".38"/><circle cx="258" cy="394" r="4" fill="#e0b65f" opacity=".32"/><circle cx="327" cy="447" r="6" fill="#e0b65f" opacity=".13"/><circle cx="300" cy="325" r="6" fill="#e0b65f" opacity=".34"/><circle cx="383" cy="513" r="5" fill="#e0b65f" opacity=".35"/><circle cx="436" cy="263" r="6" fill="#e0b65f" opacity=".36"/><circle cx="668" cy="258" r="3" fill="#e0b65f" opacity=".15"/><circle cx="990" cy="62" r="5" fill="#e0b65f" opacity=".25"/><circle cx="918" cy="514" r="5" fill="#e0b65f" opacity=".36"/><circle cx="261" cy="204" r="6" fill="#e0b65f" opacity=".39"/><circle cx="906" cy="542" r="6" fill="#e0b65f" opacity=".23"/><circle cx="630" cy="514" r="6" fill="#e0b65f" opacity=".37"/><circle cx="262" cy="172" r="2" fill="#e0b65f" opacity=".32"/><rect x="70" y="66" width="1060" height="498" rx="30" fill="none" stroke="#d6ad52" opacity=".28"/><text x="90" y="125" fill="#d6ad52" font-size="20" font-family="Arial" letter-spacing="5">LOCAL SERVICE AREA</text><text x="90" y="280" fill="url(#gold)" font-size="54" font-family="Georgia" font-weight="700">Catering in Old Bus Stand Vellore</text><text x="92" y="332" fill="#f2eadb" opacity=".86" font-size="23" font-family="Arial">Old Bus Stand Vellore, Vellore, Tamil Nadu</text><line x1="92" y1="385" x2="480" y2="385" stroke="#d6ad52" opacity=".5"/><text x="92" y="440" fill="#f2eadb" font-size="21" font-family="Arial">Wedding • Birthday • Seemandham • Other Caterings</text><text x="92" y="495" fill="#bfb5a6" font-size="18" font-family="Arial">Vellore Catering · WhatsApp 99404 66250</text></svg>