<svg xmlns="http://www.w3.org/2000/svg" width="1200" height="630" viewBox="0 0 1200 630" role="img" aria-label="Pennathur Bus Stand Wedding Planning"><defs><radialGradient id="g" cx="82%" cy="18%" r="80%"><stop offset="0" stop-color="hsl(42 45% 20%)"/><stop offset=".55" stop-color="#0b0906"/><stop offset="1" stop-color="#020202"/></radialGradient><linearGradient id="gold"><stop stop-color="#b98528"/><stop offset=".5" stop-color="#f2d17c"/><stop offset="1" stop-color="#a66f1e"/></linearGradient></defs><rect width="1200" height="630" fill="url(#g)"/><circle cx="812" cy="333" r="6" fill="#e0b65f" opacity=".22"/><circle cx="374" cy="239" r="5" fill="#e0b65f" opacity=".18"/><circle cx="689" cy="516" r="6" fill="#e0b65f" opacity=".25"/><circle cx="772" cy="376" r="3" fill="#e0b65f" opacity=".19"/><circle cx="834" cy="227" r="2" fill="#e0b65f" opacity=".39"/><circle cx="948" cy="104" r="5" fill="#e0b65f" opacity=".22"/><circle cx="880" cy="431" r="2" fill="#e0b65f" opacity=".36"/><circle cx="1077" cy="410" r="2" fill="#e0b65f" opacity=".27"/><circle cx="1020" cy="243" r="5" fill="#e0b65f" opacity=".37"/><circle cx="909" cy="234" r="2" fill="#e0b65f" opacity=".34"/><circle cx="1111" cy="329" r="3" fill="#e0b65f" opacity=".25"/><circle cx="344" cy="447" r="4" fill="#e0b65f" opacity=".26"/><circle cx="721" cy="373" r="4" fill="#e0b65f" opacity=".29"/><circle cx="229" cy="289" r="3" fill="#e0b65f" opacity=".39"/><circle cx="986" cy="319" r="5" fill="#e0b65f" opacity=".24"/><circle cx="1020" cy="180" r="2" fill="#e0b65f" opacity=".27"/><rect x="70" y="66" width="1060" height="498" rx="30" fill="none" stroke="#d6ad52" opacity=".28"/><text x="90" y="125" fill="#d6ad52" font-size="20" font-family="Arial" letter-spacing="5">LOCAL SERVICE AREA</text><text x="90" y="280" fill="url(#gold)" font-size="54" font-family="Georgia" font-weight="700">Pennathur Bus Stand Wedding Planning</text><text x="92" y="332" fill="#f2eadb" opacity=".86" font-size="23" font-family="Arial">Illustrative event-service planning artwork</text><line x1="92" y1="385" x2="480" y2="385" stroke="#d6ad52" opacity=".5"/><text x="92" y="440" fill="#f2eadb" font-size="21" font-family="Arial">Wedding • Birthday • Seemandham • Other Caterings</text><text x="92" y="495" fill="#bfb5a6" font-size="18" font-family="Arial">Vellore Catering · WhatsApp 99404 66250</text></svg>