<svg xmlns="http://www.w3.org/2000/svg" width="1200" height="630" viewBox="0 0 1200 630" role="img" aria-label="Sathapalaiyam Wedding Planning"><defs><radialGradient id="g" cx="82%" cy="18%" r="80%"><stop offset="0" stop-color="hsl(38 45% 20%)"/><stop offset=".55" stop-color="#0b0906"/><stop offset="1" stop-color="#020202"/></radialGradient><linearGradient id="gold"><stop stop-color="#b98528"/><stop offset=".5" stop-color="#f2d17c"/><stop offset="1" stop-color="#a66f1e"/></linearGradient></defs><rect width="1200" height="630" fill="url(#g)"/><circle cx="515" cy="256" r="3" fill="#e0b65f" opacity=".36"/><circle cx="147" cy="337" r="6" fill="#e0b65f" opacity=".37"/><circle cx="953" cy="369" r="4" fill="#e0b65f" opacity=".31"/><circle cx="951" cy="185" r="2" fill="#e0b65f" opacity=".23"/><circle cx="784" cy="80" r="5" fill="#e0b65f" opacity=".34"/><circle cx="737" cy="70" r="2" fill="#e0b65f" opacity=".23"/><circle cx="144" cy="505" r="6" fill="#e0b65f" opacity=".12"/><circle cx="998" cy="358" r="2" fill="#e0b65f" opacity=".25"/><circle cx="992" cy="292" r="2" fill="#e0b65f" opacity=".36"/><circle cx="494" cy="88" r="3" fill="#e0b65f" opacity=".36"/><circle cx="508" cy="378" r="2" fill="#e0b65f" opacity=".15"/><circle cx="399" cy="422" r="4" fill="#e0b65f" opacity=".35"/><circle cx="1060" cy="219" r="2" fill="#e0b65f" opacity=".28"/><circle cx="519" cy="366" r="3" fill="#e0b65f" opacity=".24"/><circle cx="1021" cy="312" r="2" fill="#e0b65f" opacity=".26"/><circle cx="609" cy="382" r="3" fill="#e0b65f" opacity=".30"/><rect x="70" y="66" width="1060" height="498" rx="30" fill="none" stroke="#d6ad52" opacity=".28"/><text x="90" y="125" fill="#d6ad52" font-size="20" font-family="Arial" letter-spacing="5">LOCAL SERVICE AREA</text><text x="90" y="280" fill="url(#gold)" font-size="54" font-family="Georgia" font-weight="700">Sathapalaiyam Wedding Planning</text><text x="92" y="332" fill="#f2eadb" opacity=".86" font-size="23" font-family="Arial">Illustrative event-service planning artwork</text><line x1="92" y1="385" x2="480" y2="385" stroke="#d6ad52" opacity=".5"/><text x="92" y="440" fill="#f2eadb" font-size="21" font-family="Arial">Wedding • Birthday • Seemandham • Other Caterings</text><text x="92" y="495" fill="#bfb5a6" font-size="18" font-family="Arial">Vellore Catering · WhatsApp 99404 66250</text></svg>