<svg xmlns="http://www.w3.org/2000/svg" width="900" height="700" viewBox="0 0 900 700" role="img" aria-labelledby="t d"><title id="t">Tamil New Year Catering illustration</title><desc id="d">Original abstract catering illustration created for the Tamil New Year Catering page.</desc><defs><linearGradient id="bg" x1="0" x2="1" y1="0" y2="1"><stop stop-color="#030303"/><stop offset=".55" stop-color="#080704"/><stop offset="1" stop-color="#3B3F5B" stop-opacity=".72"/></linearGradient><radialGradient id="glow"><stop stop-color="#D6AD52" stop-opacity=".23"/><stop offset="1" stop-color="#D6AD52" stop-opacity="0"/></radialGradient></defs><rect width="100%" height="100%" fill="url(#bg)"/><circle cx="82%" cy="20%" r="34%" fill="url(#glow)"/><circle cx="158" cy="526" r="77" fill="none" stroke="#D6AD52" stroke-opacity="0.05" stroke-width="2"/><circle cx="190" cy="399" r="93" fill="none" stroke="#D6AD52" stroke-opacity="0.07500000000000001" stroke-width="2"/><circle cx="603" cy="79" r="52" fill="none" stroke="#D6AD52" stroke-opacity="0.1" stroke-width="2"/><circle cx="386" cy="621" r="50" fill="none" stroke="#D6AD52" stroke-opacity="0.125" stroke-width="2"/><circle cx="734" cy="469" r="88" fill="none" stroke="#D6AD52" stroke-opacity="0.05" stroke-width="2"/><circle cx="309" cy="502" r="35" fill="none" stroke="#D6AD52" stroke-opacity="0.07500000000000001" stroke-width="2"/><circle cx="166" cy="508" r="67" fill="none" stroke="#D6AD52" stroke-opacity="0.1" stroke-width="2"/><circle cx="705" cy="42" r="101" fill="none" stroke="#D6AD52" stroke-opacity="0.125" stroke-width="2"/><circle cx="855" cy="509" r="76" fill="none" stroke="#D6AD52" stroke-opacity="0.05" stroke-width="2"/><circle cx="487" cy="636" r="26" fill="none" stroke="#D6AD52" stroke-opacity="0.07500000000000001" stroke-width="2"/><rect x="108" y="140" width="684" height="406" rx="44" fill="#3B3F5B" opacity=".32"/><ellipse cx="511" cy="336" rx="225" ry="154" fill="#080704" stroke="#D6AD52" stroke-width="3"/><path d="M270,399 Q450,175 630,399" fill="none" stroke="#F1D38B" stroke-width="6" opacity=".9"/><circle cx="378" cy="336" r="42" fill="#D6AD52" opacity=".34"/><circle cx="522" cy="336" r="56" fill="#D6AD52" opacity=".18"/><text x="72" y="616" fill="#F7EFD7" font-family="Georgia,serif" font-size="31" font-weight="700">Tamil New Year</text><text x="72" y="655" fill="#F1D38B" font-family="Arial,sans-serif" font-size="18" letter-spacing="3">IN VELLORE</text><text x="72" y="658" fill="#F7EFD7" opacity=".62" font-family="Arial,sans-serif" font-size="14">Original illustration • Vellore Catering</text></svg>